<?xml version="1.0" encoding="UTF-8"?>
<svg id="Layer_1" data-name="Layer 1" xmlns="http://www.w3.org/2000/svg" viewBox="0 0 243.92 211.45">
  <defs>
    <style>
      .cls-1 {
        fill: #f6a8c1;
      }
    </style>
  </defs>
  <g id="Layer_1-2" data-name="Layer 1">
    <path class="cls-1" d="M30.6,49.31c-4.71-15.91,9.63-31.47,10.8-32.71,4.13-4.36,15.43-17.13,29.85-12.93,10.4,3.02,16.73,13.24,22.09,22.65,10.23-9.9,21.76-18.93,35.26-23.46,13.49-4.53,29.26-4.01,40.99,4.07,11.72,8.08,17.84,24.59,11.74,37.45,14.46-5.58,31.28-7.85,45.13-.9,13.85,6.95,22.34,25.5,14.43,38.83-6.36,10.72-19.91,14.29-32.09,16.92,8.07,10.75,14.59,23.15,15.78,36.54,1.19,13.39-3.79,27.84-14.82,35.51-11.04,7.67-28.21,6.38-36.13-4.48-5.98,13.82-14.41,27.05-26.74,35.69-12.33,8.64-29.07,11.99-42.78,5.76-13.71-6.23-22.43-23.31-16.85-37.29-9.27,4.78-18.92,9.41-29.31,10.37-10.39.96-21.78-2.48-27.72-11.06-5.67-8.2-5.2-19.57-.74-28.49,4.47-8.91,12.35-15.67,20.79-20.97-10.76-1.77-21.74-3.62-31.36-8.76C13.47,109.15.51,99.79.01,86.95c-.52-13.26,12.7-27.5,32.93-32.3-.75-1.25-1.67-3.05-2.34-5.33Z"/>
  </g>
</svg>