<?xml version="1.0" encoding="UTF-8"?>
<svg id="Layer_2" data-name="Layer 2" xmlns="http://www.w3.org/2000/svg" viewBox="0 0 373.41 221.72">
  <defs>
    <style>
      .cls-1 {
        fill: #f6a8c1;
      }

      .cls-2 {
        fill: #f15d33;
      }
    </style>
  </defs>
  <g id="Layer_1-2" data-name="Layer 1">
    <g>
      <g>
        <path class="cls-2" d="M65.85,0v22.73H25.29v17.48h30.42v22.73h-30.42v27.98H1.5V0h64.35Z"/>
        <path class="cls-2" d="M114.28,0v90.92h-23.78V0h23.78Z"/>
        <path class="cls-2" d="M203.27,0v22.56h-40.57v12.06h30.42v21.33h-30.42v12.41h40.57v22.56h-64.35V0h64.35Z"/>
        <path class="cls-2" d="M251.7,0v68.19h26.93v22.73h-50.71V0h23.78Z"/>
        <path class="cls-2" d="M296.63,0h23.96c12.94,0,51.23,0,51.23,44.94s-36.37,45.99-50.01,45.99h-25.18V0ZM320.41,22.56v45.81h1.75c11.54,0,25.18,0,25.18-23.43s-15.39-22.38-26.4-22.38h-.52Z"/>
      </g>
      <g>
        <path class="cls-2" d="M0,127.16h23.96c12.94,0,51.23,0,51.23,44.94s-36.37,45.99-50.01,45.99H0v-90.92ZM23.78,149.71v45.81h1.75c11.54,0,25.18,0,25.18-23.43s-15.39-22.38-26.4-22.38h-.52Z"/>
        <path class="cls-2" d="M112.17,127.16h30.25l26.4,90.92h-24.65l-2.27-8.57h-29.38l-2.27,8.57h-24.65l26.58-90.92ZM136.29,188.7l-9.09-34.97-9.27,34.97h18.36Z"/>
        <path class="cls-2" d="M248.02,127.16l-25,54.03v36.89h-23.78v-36.89l-25-54.03h25l11.89,26.75,11.89-26.75h25Z"/>
      </g>
      <path class="cls-1" d="M280.71,151.26c-2.04-6.91,4.18-13.68,4.69-14.21,1.79-1.9,6.71-7.44,12.97-5.62,4.52,1.31,7.27,5.75,9.6,9.84,4.44-4.3,9.46-8.22,15.32-10.19,5.86-1.97,12.72-1.74,17.81,1.77,5.09,3.51,7.75,10.69,5.1,16.28,6.28-2.43,13.59-3.41,19.61-.39,6.02,3.02,9.71,11.08,6.27,16.87-2.76,4.66-8.65,6.21-13.95,7.35,3.51,4.67,6.34,10.06,6.86,15.88.52,5.82-1.65,12.1-6.44,15.43-4.8,3.33-12.26,2.77-15.7-1.95-2.6,6.01-6.26,11.75-11.62,15.51-5.36,3.76-12.63,5.21-18.59,2.5-5.96-2.71-9.75-10.13-7.32-16.2-4.03,2.08-8.22,4.09-12.74,4.51-4.51.42-9.47-1.08-12.05-4.81-2.47-3.56-2.26-8.51-.32-12.38,1.94-3.87,5.37-6.81,9.04-9.11-4.68-.77-9.45-1.57-13.63-3.81-2.36-1.26-7.99-5.33-8.21-10.91-.22-5.76,5.52-11.95,14.31-14.04-.32-.54-.72-1.33-1.02-2.32Z"/>
    </g>
  </g>
</svg>