<?xml version="1.0"?>
<svg id="Layer_2" data-name="Layer 2" xmlns="http://www.w3.org/2000/svg" viewBox="0 0 581.08 145.59">
  <defs>
    
  </defs>
  <g id="Layer_1-2" data-name="Layer 1">
    <rect class="cls-1" width="581.08" height="145.59"></rect>
    <g>
      <path class="cls-2" d="M84.69,40.11v17.71h-31.6v13.62h23.7v17.71h-23.7v21.79h-18.52V40.11h50.12Z"></path>
      <path class="cls-2" d="M122.41,40.11v70.83h-18.53V40.11h18.53Z"></path>
      <path class="cls-2" d="M191.74,40.11v17.57h-31.6v9.4h23.7v16.62h-23.7v9.67h31.6v17.57h-50.13V40.11h50.13Z"></path>
      <path class="cls-2" d="M229.46,40.11v53.12h20.97v17.71h-39.5V40.11h18.53Z"></path>
      <path class="cls-2" d="M264.46,40.11h18.66c10.08,0,39.91,0,39.91,35.01s-28.33,35.82-38.95,35.82h-19.61V40.11ZM282.99,57.68v35.69h1.36c8.99,0,19.61,0,19.61-18.25s-11.99-17.43-20.57-17.43h-.41Z"></path>
      <path class="cls-2" d="M357.12,40.11h18.66c10.08,0,39.91,0,39.91,35.01s-28.33,35.82-38.95,35.82h-19.61V40.11ZM375.64,57.68v35.69h1.36c8.99,0,19.61,0,19.61-18.25s-11.99-17.43-20.57-17.43h-.41Z"></path>
      <path class="cls-2" d="M444.49,40.11h23.56l20.57,70.83h-19.2l-1.77-6.67h-22.88l-1.77,6.67h-19.2l20.7-70.83ZM463.29,88.06l-7.08-27.24-7.22,27.24h14.3Z"></path>
      <path class="cls-2" d="M550.32,40.11l-19.48,42.09v28.74h-18.53v-28.74l-19.48-42.09h19.48l9.26,20.84,9.26-20.84h19.48Z"></path>
    </g>
  </g>
</svg>