<?xml version="1.0"?>
<svg id="Layer_2" data-name="Layer 2" xmlns="http://www.w3.org/2000/svg" viewBox="0 0 502.92 69.06">
  <defs>
    
  </defs>
  <g id="Layer_1-2" data-name="Layer 1">
    <g>
      <path class="cls-1" d="M48.87,0v17.27h-30.81v13.28h23.11v17.27h-23.11v21.25H0V0h48.87Z"></path>
      <path class="cls-1" d="M85.66,0v69.06h-18.06V0h18.06Z"></path>
      <path class="cls-1" d="M153.26,0v17.13h-30.81v9.16h23.11v16.2h-23.11v9.43h30.81v17.13h-48.88V0h48.88Z"></path>
      <path class="cls-1" d="M190.05,0v51.8h20.45v17.27h-38.52V0h18.06Z"></path>
      <path class="cls-1" d="M224.17,0h18.2c9.83,0,38.91,0,38.91,34.13s-27.63,34.93-37.98,34.93h-19.13V0ZM242.24,17.13v34.8h1.33c8.77,0,19.13,0,19.13-17.8s-11.69-17-20.05-17h-.4Z"></path>
      <path class="cls-1" d="M314.52,0h18.2c9.83,0,38.91,0,38.91,34.13s-27.63,34.93-37.98,34.93h-19.13V0ZM332.59,17.13v34.8h1.33c8.77,0,19.13,0,19.13-17.8s-11.69-17-20.05-17h-.4Z"></path>
      <path class="cls-1" d="M399.72,0h22.98l20.05,69.06h-18.73l-1.73-6.51h-22.31l-1.73,6.51h-18.73L399.72,0ZM418.05,46.75l-6.91-26.56-7.04,26.56h13.95Z"></path>
      <path class="cls-1" d="M502.92,0l-18.99,41.04v28.02h-18.06v-28.02L446.87,0h18.99l9.03,20.32,9.03-20.32h18.99Z"></path>
    </g>
  </g>
</svg>